<svg width="250" height="250" viewBox="0 0 250 250" fill="none" xmlns="http://www.w3.org/2000/svg">
<g opacity="0.3">
<path d="M87.6788 41.425H63.5088V118.03H87.6788V41.425Z" fill="#F5F5F5"/>
<path d="M87.6787 41.425H75.5938V117.82H87.6787V41.425Z" fill="#EBEBEB"/>
<path d="M74.8045 33.8999H66.2695V41.4199H74.8045V33.8999Z" fill="#F5F5F5"/>
<path d="M74.8045 33.8999H72.7695V41.4199H74.8045V33.8999Z" fill="#EBEBEB"/>
<path d="M61.4941 41.4249V40.9849H88.3891V41.4249" fill="#E0E0E0"/>
<path d="M70.3233 44.7048H68.2783V49.0198H70.3233V44.7048Z" fill="#FAFAFA"/>
<path d="M75.5938 50.7099C75.5938 50.7549 72.8888 50.7949 69.5488 50.7949C66.2088 50.7949 63.5088 50.7549 63.5088 50.7099C63.5088 50.6649 66.2138 50.6299 69.5488 50.6299C72.8838 50.6299 75.5938 50.6649 75.5938 50.7099Z" fill="#E0E0E0"/>
<path d="M82.5137 44.7048H80.4688V49.0198H82.5137V44.7048Z" fill="#E0E0E0"/>
<path d="M87.7842 50.7099C87.7842 50.7549 85.0792 50.7949 81.7442 50.7949C78.4092 50.7949 75.6992 50.7549 75.6992 50.7099C75.6992 50.6649 78.4042 50.6299 81.7442 50.6299C85.0842 50.6299 87.7842 50.6649 87.7842 50.7099Z" fill="#E0E0E0"/>
<path d="M82.5137 53.2699H80.4688V57.5849H82.5137V53.2699Z" fill="#E0E0E0"/>
<path d="M87.7842 59.2749C87.7842 59.3199 85.0792 59.3599 81.7442 59.3599C78.4092 59.3599 75.6992 59.3199 75.6992 59.2749C75.6992 59.2299 78.4042 59.1949 81.7442 59.1949C85.0842 59.1949 87.7842 59.2299 87.7842 59.2749Z" fill="#E0E0E0"/>
<path d="M82.5137 62.0898H80.4688V66.4048H82.5137V62.0898Z" fill="#E0E0E0"/>
<path d="M87.7842 68.1C87.7842 68.145 85.0792 68.18 81.7442 68.18C78.4092 68.18 75.6992 68.145 75.6992 68.1C75.6992 68.055 78.4042 68.02 81.7442 68.02C85.0842 68.02 87.7842 68.055 87.7842 68.1Z" fill="#E0E0E0"/>
<path d="M82.5137 70.9148H80.4688V75.2298H82.5137V70.9148Z" fill="#E0E0E0"/>
<path d="M87.7842 76.9249C87.7842 76.9699 85.0792 77.0048 81.7442 77.0048C78.4092 77.0048 75.6992 76.9699 75.6992 76.9249C75.6992 76.8799 78.4042 76.8398 81.7442 76.8398C85.0842 76.8398 87.7842 76.8799 87.7842 76.9249Z" fill="#E0E0E0"/>
<path d="M82.5137 79.4899H80.4688V83.8049H82.5137V79.4899Z" fill="#E0E0E0"/>
<path d="M87.7842 85.4998C87.7842 85.5448 85.0792 85.5848 81.7442 85.5848C78.4092 85.5848 75.6992 85.5448 75.6992 85.4998C75.6992 85.4548 78.4042 85.4198 81.7442 85.4198C85.0842 85.4198 87.7842 85.4498 87.7842 85.4998Z" fill="#E0E0E0"/>
<path d="M82.5137 88.0948H80.4688V92.4099H82.5137V88.0948Z" fill="#E0E0E0"/>
<path d="M82.5137 96.8149H80.4688V101.13H82.5137V96.8149Z" fill="#E0E0E0"/>
<path d="M87.7842 94.0998C87.7842 94.1448 85.0792 94.1848 81.7442 94.1848C78.4092 94.1848 75.6992 94.1448 75.6992 94.0998C75.6992 94.0548 78.4042 94.0198 81.7442 94.0198C85.0842 94.0198 87.7842 94.0548 87.7842 94.0998Z" fill="#E0E0E0"/>
<path d="M70.3233 53.3999H68.2783V57.7149H70.3233V53.3999Z" fill="#FAFAFA"/>
<path d="M75.594 59.4049C75.594 59.4499 72.889 59.49 69.549 59.49C66.209 59.49 63.499 59.4499 63.499 59.4049C63.499 59.3599 66.204 59.325 69.539 59.325C72.874 59.325 75.594 59.3599 75.594 59.4049Z" fill="#E0E0E0"/>
<path d="M70.3233 62.095H68.2783V66.41H70.3233V62.095Z" fill="#FAFAFA"/>
<path d="M75.594 68.105C75.594 68.15 72.889 68.185 69.549 68.185C66.209 68.185 63.499 68.15 63.499 68.105C63.499 68.06 66.204 68.02 69.539 68.02C72.874 68.02 75.594 68.06 75.594 68.105Z" fill="#E0E0E0"/>
<path d="M70.3233 70.7898H68.2783V75.1048H70.3233V70.7898Z" fill="#FAFAFA"/>
<path d="M75.594 76.7999C75.594 76.8449 72.889 76.8798 69.549 76.8798C66.209 76.8798 63.499 76.8449 63.499 76.7999C63.499 76.7549 66.204 76.7148 69.539 76.7148C72.874 76.7148 75.594 76.7549 75.594 76.7999Z" fill="#E0E0E0"/>
<path d="M70.3233 79.4899H68.2783V83.8049H70.3233V79.4899Z" fill="#FAFAFA"/>
<path d="M75.594 85.4998C75.594 85.5448 72.889 85.5848 69.549 85.5848C66.209 85.5848 63.499 85.5398 63.499 85.4998C63.499 85.4598 66.204 85.4198 69.539 85.4198C72.874 85.4198 75.594 85.4498 75.594 85.4998Z" fill="#E0E0E0"/>
<path d="M70.3233 88.1848H68.2783V92.4998H70.3233V88.1848Z" fill="#FAFAFA"/>
<path d="M75.5938 94.1899C75.5938 94.2349 72.8888 94.2749 69.5488 94.2749C66.2088 94.2749 63.5088 94.2349 63.5088 94.1899C63.5088 94.1449 66.2138 94.1099 69.5488 94.1099C72.8838 94.1099 75.5938 94.1449 75.5938 94.1899Z" fill="#E0E0E0"/>
<path d="M70.3233 96.8798H68.2783V101.195H70.3233V96.8798Z" fill="#FAFAFA"/>
<path d="M176.198 57.6648H152.028V134.27H176.198V57.6648Z" fill="#F5F5F5"/>
<path d="M176.205 57.6648H164.12V134.06H176.205V57.6648Z" fill="#EBEBEB"/>
<path d="M163.328 50.1449H154.793V57.6649H163.328V50.1449Z" fill="#F5F5F5"/>
<path d="M163.328 50.1449H161.293V57.6649H163.328V50.1449Z" fill="#EBEBEB"/>
<path d="M150.019 57.665V57.225H176.909V57.665" fill="#E0E0E0"/>
<path d="M158.849 60.9448H156.804V65.2598H158.849V60.9448Z" fill="#FAFAFA"/>
<path d="M164.118 66.9549C164.118 66.9999 161.413 67.0349 158.073 67.0349C154.733 67.0349 152.028 66.9999 152.028 66.9549C152.028 66.9099 154.738 66.8699 158.073 66.8699C161.408 66.8699 164.118 66.9099 164.118 66.9549Z" fill="#E0E0E0"/>
<path d="M171.038 60.9448H168.993V65.2598H171.038V60.9448Z" fill="#E0E0E0"/>
<path d="M176.309 66.9549C176.309 66.9999 173.604 67.0349 170.264 67.0349C166.924 67.0349 164.224 66.9999 164.224 66.9549C164.224 66.9099 166.929 66.8699 170.264 66.8699C173.599 66.8699 176.309 66.9099 176.309 66.9549Z" fill="#E0E0E0"/>
<path d="M171.038 69.5099H168.993V73.8249H171.038V69.5099Z" fill="#E0E0E0"/>
<path d="M176.309 75.4999C176.309 75.5449 173.604 75.5799 170.264 75.5799C166.924 75.5799 164.224 75.5449 164.224 75.4999C164.224 75.4549 166.929 75.4149 170.264 75.4149C173.599 75.4149 176.309 75.4999 176.309 75.4999Z" fill="#E0E0E0"/>
<path d="M171.038 78.335H168.993V82.65H171.038V78.335Z" fill="#E0E0E0"/>
<path d="M176.309 84.3449C176.309 84.3899 173.604 84.4249 170.264 84.4249C166.924 84.4249 164.224 84.3899 164.224 84.3449C164.224 84.2999 166.929 84.2599 170.264 84.2599C173.599 84.2599 176.309 84.2999 176.309 84.3449Z" fill="#E0E0E0"/>
<path d="M171.038 87.16H168.993V91.475H171.038V87.16Z" fill="#E0E0E0"/>
<path d="M176.309 93.165C176.309 93.215 173.604 93.25 170.264 93.25C166.924 93.25 164.224 93.215 164.224 93.165C164.224 93.115 166.929 93.085 170.264 93.085C173.599 93.085 176.309 93.12 176.309 93.165Z" fill="#E0E0E0"/>
<path d="M171.038 95.73H168.993V100.045H171.038V95.73Z" fill="#E0E0E0"/>
<path d="M176.309 101.74C176.309 101.785 173.604 101.82 170.264 101.82C166.924 101.82 164.224 101.785 164.224 101.74C164.224 101.695 166.929 101.655 170.264 101.655C173.599 101.655 176.309 101.695 176.309 101.74Z" fill="#E0E0E0"/>
<path d="M171.038 104.335H168.993V108.65H171.038V104.335Z" fill="#E0E0E0"/>
<path d="M171.038 113.055H168.993V117.37H171.038V113.055Z" fill="#E0E0E0"/>
<path d="M176.309 110.345C176.309 110.39 173.604 110.425 170.264 110.425C166.924 110.425 164.224 110.39 164.224 110.345C164.224 110.3 166.929 110.265 170.264 110.265C173.599 110.265 176.309 110.3 176.309 110.345Z" fill="#E0E0E0"/>
<path d="M158.849 69.6399H156.804V73.9549H158.849V69.6399Z" fill="#FAFAFA"/>
<path d="M164.118 75.6498C164.118 75.6948 161.413 75.7298 158.073 75.7298C154.733 75.7298 152.028 75.6948 152.028 75.6498C152.028 75.6048 154.738 75.5698 158.073 75.5698C161.408 75.5698 164.118 75.6048 164.118 75.6498Z" fill="#E0E0E0"/>
<path d="M158.849 78.3398H156.804V82.6548H158.849V78.3398Z" fill="#FAFAFA"/>
<path d="M164.118 84.3449C164.118 84.3899 161.413 84.4299 158.073 84.4299C154.733 84.4299 152.028 84.3899 152.028 84.3449C152.028 84.2999 154.738 84.2649 158.073 84.2649C161.408 84.2649 164.118 84.2999 164.118 84.3449Z" fill="#E0E0E0"/>
<path d="M158.849 87.0349H156.804V91.3499H158.849V87.0349Z" fill="#FAFAFA"/>
<path d="M164.118 93.0398C164.118 93.0898 161.413 93.1248 158.073 93.1248C154.733 93.1248 152.028 93.0898 152.028 93.0398C152.028 92.9898 154.738 92.9598 158.073 92.9598C161.408 92.9598 164.118 92.9998 164.118 93.0398Z" fill="#E0E0E0"/>
<path d="M158.849 95.73H156.804V100.045H158.849V95.73Z" fill="#FAFAFA"/>
<path d="M164.118 101.74C164.118 101.785 161.413 101.82 158.073 101.82C154.733 101.82 152.028 101.785 152.028 101.74C152.028 101.695 154.738 101.655 158.073 101.655C161.408 101.655 164.118 101.695 164.118 101.74Z" fill="#E0E0E0"/>
<path d="M158.849 104.43H156.804V108.745H158.849V104.43Z" fill="#FAFAFA"/>
<path d="M164.118 110.435C164.118 110.48 161.413 110.515 158.073 110.515C154.733 110.515 152.028 110.48 152.028 110.435C152.028 110.39 154.738 110.355 158.073 110.355C161.408 110.355 164.118 110.39 164.118 110.435Z" fill="#E0E0E0"/>
<path d="M158.849 113.125H156.804V117.44H158.849V113.125Z" fill="#FAFAFA"/>
<path d="M206.384 87.39H167.244V139.01H206.384V87.39Z" fill="#EBEBEB"/>
<path d="M206.378 87.39H188.028V139.01H206.378V87.39Z" fill="#E0E0E0"/>
<path d="M178.968 94.3798H175.448V102.93H178.968V94.3798Z" fill="#F5F5F5"/>
<path d="M178.968 127.84H175.448V136.39H178.968V127.84Z" fill="#F5F5F5"/>
<path d="M188.029 106.285C188.029 106.38 183.379 106.455 177.639 106.455C171.899 106.455 167.244 106.38 167.244 106.285C167.244 106.19 171.894 106.11 177.639 106.11C183.384 106.11 188.029 106.185 188.029 106.285Z" fill="#F5F5F5"/>
<path d="M178.968 111.235H175.448V119.785H178.968V111.235Z" fill="#F5F5F5"/>
<path d="M188.029 123.14C188.029 123.235 183.379 123.315 177.639 123.315C171.899 123.315 167.244 123.235 167.244 123.14C167.244 123.045 171.894 122.965 177.639 122.965C183.384 122.965 188.029 123.045 188.029 123.14Z" fill="#F5F5F5"/>
<path d="M195.449 94.3798H191.929V102.93H195.449V94.3798Z" fill="#F5F5F5"/>
<path d="M203.084 94.3798H199.564V102.93H203.084V94.3798Z" fill="#F5F5F5"/>
<path d="M195.449 110.6H191.929V119.15H195.449V110.6Z" fill="#F5F5F5"/>
<path d="M203.084 110.6H199.564V119.15H203.084V110.6Z" fill="#F5F5F5"/>
<path d="M195.449 126.825H191.929V135.375H195.449V126.825Z" fill="#F5F5F5"/>
<path d="M203.084 126.825H199.564V135.375H203.084V126.825Z" fill="#F5F5F5"/>
<path d="M209.324 85.5898H164.299V87.4498H209.324V85.5898Z" fill="#E0E0E0"/>
<path d="M206.653 87.63C206.653 87.725 197.908 87.8 187.118 87.8C176.328 87.8 167.578 87.725 167.578 87.63C167.578 87.535 176.328 87.455 187.118 87.455C197.908 87.455 206.653 87.53 206.653 87.63Z" fill="#EBEBEB"/>
<path d="M78.7143 140.04H43.1443L42.9893 83.825H78.5593L78.7143 140.04Z" fill="#EBEBEB"/>
<path d="M78.5584 83.825H60.7734V140.04H78.5584V83.825Z" fill="#E0E0E0"/>
<path d="M59.6088 72.7599H47.0488V83.8249H59.6088V72.7599Z" fill="#EBEBEB"/>
<path d="M59.6083 72.7599H56.6133V83.8249H59.6083V72.7599Z" fill="#E0E0E0"/>
<path d="M79.5984 83.1798H40.0234V83.8248H79.5984V83.1798Z" fill="#E0E0E0"/>
<path d="M53.0178 88.6548H50.0078V95.0048H53.0178V88.6548Z" fill="white"/>
<path d="M60.773 97.4998C60.773 97.5648 56.773 97.6198 51.878 97.6198C46.983 97.6198 42.998 97.5598 42.998 97.4998C42.998 97.4398 46.998 97.3798 51.888 97.3798C56.778 97.3798 60.773 97.4248 60.773 97.4998Z" fill="#E0E0E0"/>
<path d="M70.9582 88.6548H67.9482V95.0048H70.9582V88.6548Z" fill="#F5F5F5"/>
<path d="M78.7127 97.4998C78.7127 97.5648 74.7127 97.6198 69.8177 97.6198C64.9227 97.6198 60.9277 97.5648 60.9277 97.4998C60.9277 97.4348 64.9277 97.3798 69.8177 97.3798C74.7077 97.3798 78.7127 97.4248 78.7127 97.4998Z" fill="#EBEBEB"/>
<path d="M70.9582 101.26H67.9482V107.61H70.9582V101.26Z" fill="#F5F5F5"/>
<path d="M78.7127 110.1C78.7127 110.165 74.7127 110.22 69.8177 110.22C64.9227 110.22 60.9277 110.165 60.9277 110.1C60.9277 110.035 64.9277 109.975 69.8177 109.975C74.7077 109.975 78.7127 110.03 78.7127 110.1Z" fill="#EBEBEB"/>
<path d="M70.9582 114.245H67.9482V120.595H70.9582V114.245Z" fill="#F5F5F5"/>
<path d="M78.7127 123.085C78.7127 123.15 74.7127 123.205 69.8177 123.205C64.9227 123.205 60.9277 123.15 60.9277 123.085C60.9277 123.02 64.9277 122.96 69.8177 122.96C74.7077 122.96 78.7127 123 78.7127 123.085Z" fill="#EBEBEB"/>
<path d="M70.9582 127.225H67.9482V133.575H70.9582V127.225Z" fill="#F5F5F5"/>
<path d="M78.7127 136.07C78.7127 136.135 74.7127 136.19 69.8177 136.19C64.9227 136.19 60.9277 136.135 60.9277 136.07C60.9277 136.005 64.9277 135.945 69.8177 135.945C74.7077 135.945 78.7127 136 78.7127 136.07Z" fill="#EBEBEB"/>
<path d="M53.0178 101.45H50.0078V107.8H53.0178V101.45Z" fill="white"/>
<path d="M60.773 110.29C60.773 110.36 56.773 110.41 51.878 110.41C46.983 110.41 42.998 110.36 42.998 110.29C42.998 110.22 46.998 110.17 51.888 110.17C56.778 110.17 60.773 110.225 60.773 110.29Z" fill="#E0E0E0"/>
<path d="M53.0178 114.245H50.0078V120.595H53.0178V114.245Z" fill="white"/>
<path d="M60.773 123.085C60.773 123.155 56.773 123.21 51.878 123.21C46.983 123.21 42.998 123.155 42.998 123.085C42.998 123.015 46.998 122.965 51.888 122.965C56.778 122.965 60.773 123 60.773 123.085Z" fill="#E0E0E0"/>
<path d="M53.0178 127.045H50.0078V133.395H53.0178V127.045Z" fill="white"/>
<path d="M60.773 135.885C60.773 135.95 56.773 136.005 51.878 136.005C46.983 136.005 42.998 135.95 42.998 135.885C42.998 135.82 46.998 135.765 51.888 135.765C56.778 135.765 60.773 135.815 60.773 135.885Z" fill="#E0E0E0"/>
<path d="M219.578 72.4649C219.768 71.0949 217.838 69.9649 216.388 69.8549C215.695 69.8826 215.002 69.8238 214.323 69.6799C212.908 69.1799 212.323 67.3499 210.958 66.7699C209.923 66.3299 208.733 66.7199 207.728 67.2249C206.723 67.7299 205.728 68.3649 204.613 68.4349C203.613 68.4999 202.578 68.1349 201.728 68.6149C201.093 68.9699 200.758 69.6999 200.173 70.1149C199.563 70.4886 198.859 70.6795 198.143 70.6649C197.43 70.645 196.719 70.7603 196.048 71.0049C195.715 71.1335 195.432 71.3668 195.243 71.6697C195.054 71.9727 194.968 72.3289 194.998 72.6849L219.578 72.4649Z" fill="#F5F5F5"/>
<path d="M159.404 33.4998C159.699 31.3648 156.679 29.6048 154.404 29.4198C153.324 29.3348 152.199 29.4998 151.179 29.1448C148.959 28.3698 148.069 25.4998 145.904 24.5848C144.284 23.9048 142.404 24.5098 140.849 25.2998C139.294 26.0898 137.729 27.0848 135.974 27.1998C134.474 27.2948 132.789 26.7298 131.474 27.4748C130.474 28.0298 129.974 29.1798 129.044 29.8548C128.114 30.5298 126.974 30.6548 125.864 30.7148C124.754 30.7748 123.599 30.7898 122.584 31.2498C121.569 31.7098 120.734 32.7898 120.944 33.8798L159.404 33.4998Z" fill="#EBEBEB"/>
<path d="M56.5984 63.0999C56.8334 61.3949 54.4284 59.9899 52.5984 59.8449C51.7384 59.7749 50.8434 59.9099 50.0234 59.6249C48.2534 59.0049 47.5234 56.7199 45.8234 55.9899C44.5284 55.4449 43.0434 55.9299 41.7934 56.5599C40.5434 57.1899 39.2934 57.9849 37.9034 58.0599C36.6884 58.1349 35.3684 57.6849 34.3034 58.2799C33.5084 58.7199 33.0934 59.6349 32.3634 60.1749C31.6036 60.6463 30.7222 60.8845 29.8284 60.8599C28.9377 60.8402 28.051 60.986 27.2134 61.2899C26.4084 61.6599 25.7384 62.5149 25.9084 63.3849L56.5984 63.0999Z" fill="#F5F5F5"/>
</g>
<path d="M38.9148 100.705C36.9722 100.752 35.0793 101.328 33.4398 102.371C31.8003 103.414 30.4764 104.884 29.6107 106.624C28.745 108.363 28.3703 110.306 28.527 112.243C28.6836 114.18 29.3657 116.037 30.4998 117.615L30.5998 117.76L38.1648 128.045C38.3192 128.254 38.5217 128.424 38.7551 128.539C38.9886 128.654 39.2463 128.711 39.5065 128.706C39.7667 128.7 40.0218 128.632 40.2504 128.508C40.4789 128.383 40.6742 128.206 40.8198 127.99L47.6548 117.825C48.9448 115.855 49.8348 113.79 49.8348 111.36C49.8318 109.939 49.5454 108.533 48.9922 107.224C48.4391 105.916 47.6303 104.73 46.6134 103.738C45.5964 102.746 44.3917 101.967 43.0698 101.446C41.7478 100.925 40.3353 100.673 38.9148 100.705ZM39.1698 119.15C37.5816 119.15 36.0291 118.679 34.7085 117.797C33.388 116.914 32.3588 115.66 31.751 114.193C31.1432 112.726 30.9842 111.111 31.2941 109.553C31.6039 107.996 32.3687 106.565 33.4917 105.442C34.6147 104.319 36.0455 103.554 37.6032 103.244C39.1609 102.934 40.7754 103.093 42.2427 103.701C43.71 104.309 44.9641 105.338 45.8465 106.659C46.7288 107.979 47.1998 109.532 47.1998 111.12C47.1998 113.25 46.3538 115.292 44.8478 116.798C43.3419 118.304 41.2995 119.15 39.1698 119.15Z" fill="white"/>
<g opacity="0.3">
<path d="M38.9138 100.705C36.9712 100.752 35.0783 101.328 33.4388 102.371C31.7993 103.414 30.4754 104.884 29.6097 106.624C28.744 108.363 28.3693 110.306 28.526 112.243C28.6827 114.18 29.3647 116.037 30.4988 117.615L30.5988 117.76L38.1638 128.045C38.3182 128.254 38.5207 128.424 38.7542 128.539C38.9877 128.654 39.2453 128.711 39.5055 128.706C39.7657 128.7 40.0208 128.632 40.2494 128.508C40.4779 128.383 40.6732 128.206 40.8188 127.99L47.6538 117.825C48.9438 115.855 49.8338 113.79 49.8338 111.36C49.8308 109.939 49.5444 108.533 48.9912 107.224C48.4381 105.916 47.6293 104.73 46.6124 103.738C45.5954 102.746 44.3907 101.967 43.0688 101.446C41.7469 100.925 40.3343 100.673 38.9138 100.705ZM39.1688 119.15C37.5806 119.15 36.0281 118.679 34.7076 117.797C33.387 116.914 32.3578 115.66 31.75 114.193C31.1423 112.726 30.9833 111.111 31.2931 109.553C31.6029 107.996 32.3677 106.565 33.4907 105.442C34.6137 104.319 36.0446 103.554 37.6022 103.244C39.1599 102.934 40.7745 103.093 42.2417 103.701C43.709 104.309 44.9632 105.338 45.8455 106.659C46.7278 107.979 47.1988 109.532 47.1988 111.12C47.1988 113.25 46.3528 115.292 44.8469 116.798C43.3409 118.304 41.2985 119.15 39.1688 119.15Z" fill="black"/>
</g>
<path d="M38.2838 100.705C35.5437 100.778 32.9358 101.899 30.9967 103.836C29.0575 105.773 27.9345 108.38 27.8588 111.12C27.7927 113.448 28.4956 115.732 29.8588 117.62L29.9638 117.765L37.5238 128.05C37.6772 128.264 37.8803 128.437 38.1156 128.555C38.3508 128.673 38.6112 128.732 38.8744 128.727C39.1375 128.722 39.3956 128.654 39.6263 128.527C39.8569 128.4 40.0534 128.219 40.1988 128L47.0338 117.835C48.3288 115.865 49.2138 113.8 49.2138 111.37C49.2122 109.947 48.9264 108.54 48.3732 107.229C47.82 105.918 47.0106 104.731 45.9924 103.738C44.9743 102.745 43.7679 101.964 42.4441 101.444C41.1204 100.923 39.7059 100.672 38.2838 100.705ZM38.5338 117.705C37.3315 117.704 36.1564 117.347 35.1573 116.678C34.1581 116.009 33.3796 115.059 32.9201 113.948C32.4607 112.837 32.341 111.615 32.5762 110.436C32.8114 109.257 33.3908 108.174 34.2413 107.324C35.0918 106.474 36.1752 105.896 37.3544 105.661C38.5337 105.427 39.7559 105.548 40.8666 106.008C41.9773 106.469 42.9266 107.248 43.5944 108.248C44.2623 109.247 44.6188 110.423 44.6188 111.625C44.6181 112.423 44.4602 113.214 44.154 113.951C43.8479 114.689 43.3995 115.359 42.8344 115.923C42.2694 116.487 41.5988 116.934 40.8609 117.239C40.1229 117.544 39.3322 117.701 38.5338 117.7V117.705Z" fill="white"/>
<path d="M206.428 90.58C204.946 90.6126 203.5 91.0494 202.248 91.8433C200.996 92.6371 199.985 93.7578 199.323 95.0845C198.661 96.4112 198.374 97.8934 198.493 99.3712C198.612 100.849 199.132 102.266 199.998 103.47L200.078 103.58L205.843 111.415C205.96 111.571 206.113 111.696 206.289 111.782C206.465 111.867 206.658 111.909 206.853 111.905C207.048 111.902 207.24 111.851 207.412 111.759C207.584 111.667 207.732 111.535 207.843 111.375L213.053 103.63C214.089 102.193 214.67 100.477 214.718 98.705C214.715 97.6248 214.498 96.5558 214.078 95.5604C213.659 94.5649 213.046 93.6629 212.274 92.9067C211.503 92.1506 210.588 91.5555 209.585 91.1561C208.581 90.7566 207.508 90.5608 206.428 90.58ZM206.623 104.64C205.413 104.64 204.231 104.282 203.225 103.61C202.219 102.938 201.434 101.984 200.971 100.867C200.507 99.7495 200.384 98.52 200.619 97.3334C200.854 96.1468 201.434 95.0563 202.288 94.1996C203.142 93.3429 204.231 92.7585 205.417 92.5201C206.603 92.2817 207.832 92.4 208.951 92.8602C210.07 93.3203 211.027 94.1016 211.702 95.1054C212.377 96.1092 212.739 97.2905 212.743 98.5C212.745 99.3054 212.589 100.103 212.283 100.848C211.976 101.593 211.526 102.27 210.957 102.84C210.389 103.411 209.713 103.863 208.969 104.172C208.226 104.481 207.428 104.64 206.623 104.64Z" fill="white"/>
<g opacity="0.3">
<path d="M206.428 90.58C204.946 90.6126 203.5 91.0494 202.248 91.8433C200.996 92.6371 199.985 93.7578 199.323 95.0845C198.661 96.4112 198.374 97.8934 198.493 99.3712C198.612 100.849 199.132 102.266 199.998 103.47L200.078 103.58L205.843 111.415C205.96 111.571 206.113 111.696 206.289 111.782C206.465 111.867 206.658 111.909 206.853 111.905C207.048 111.902 207.24 111.851 207.412 111.759C207.584 111.667 207.732 111.535 207.843 111.375L213.053 103.63C214.089 102.193 214.67 100.477 214.718 98.705C214.715 97.6248 214.498 96.5558 214.078 95.5604C213.659 94.5649 213.046 93.6629 212.274 92.9067C211.503 92.1506 210.588 91.5555 209.585 91.1561C208.581 90.7566 207.508 90.5608 206.428 90.58ZM206.623 104.64C205.413 104.64 204.231 104.282 203.225 103.61C202.219 102.938 201.434 101.984 200.971 100.867C200.507 99.7495 200.384 98.52 200.619 97.3334C200.854 96.1468 201.434 95.0563 202.288 94.1996C203.142 93.3429 204.231 92.7585 205.417 92.5201C206.603 92.2817 207.832 92.4 208.951 92.8602C210.07 93.3203 211.027 94.1016 211.702 95.1054C212.377 96.1092 212.739 97.2905 212.743 98.5C212.745 99.3054 212.589 100.103 212.283 100.848C211.976 101.593 211.526 102.27 210.957 102.84C210.389 103.411 209.713 103.863 208.969 104.172C208.226 104.481 207.428 104.64 206.623 104.64Z" fill="black"/>
</g>
<path d="M205.948 90.58C204.467 90.6153 203.024 91.054 201.774 91.8489C200.524 92.6438 199.515 93.7647 198.855 95.091C198.195 96.4172 197.909 97.8983 198.029 99.3749C198.148 100.851 198.668 102.267 199.533 103.47L199.608 103.58L205.368 111.415C205.486 111.575 205.64 111.704 205.818 111.792C205.996 111.879 206.193 111.923 206.391 111.919C206.59 111.915 206.784 111.864 206.958 111.769C207.133 111.674 207.282 111.539 207.393 111.375L212.603 103.63C213.638 102.192 214.217 100.476 214.263 98.705C214.261 97.6224 214.044 96.5511 213.623 95.5536C213.202 94.5562 212.587 93.6527 211.812 92.8961C211.038 92.1395 210.12 91.545 209.114 91.1473C208.107 90.7496 207.031 90.5567 205.948 90.58ZM206.138 103.535C205.222 103.535 204.325 103.263 203.563 102.754C202.801 102.245 202.207 101.521 201.856 100.674C201.505 99.8268 201.413 98.8949 201.592 97.9958C201.771 97.0967 202.213 96.2708 202.861 95.6226C203.509 94.9743 204.335 94.5329 205.234 94.3541C206.133 94.1752 207.065 94.267 207.912 94.6178C208.759 94.9686 209.483 95.5627 209.992 96.3249C210.501 97.0872 210.773 97.9833 210.773 98.9C210.774 99.5089 210.654 100.112 210.422 100.675C210.189 101.237 209.848 101.748 209.417 102.179C208.987 102.609 208.475 102.951 207.913 103.184C207.35 103.416 206.747 103.536 206.138 103.535Z" fill="white"/>
<path d="M44.7559 139.095L9.0459 227.775L76.0009 216.765L125.106 227.775L175.396 216.765L242.651 229.595L206.646 139.095L166.471 128.975L125.851 136.715L84.3359 128.975L44.7559 139.095Z" fill="white"/>
<path d="M44.756 139.095L45.411 138.92L47.366 138.42L55.026 136.445L84.321 128.945H84.346L125.846 136.66H125.811L166.431 128.91H166.501L206.671 139H206.731V139.055L242.731 229.555L242.821 229.775L242.586 229.73L207.991 223.13L175.331 216.9H175.386L125.091 227.9H125.061L75.961 216.9H76.001L9.04098 227.9L8.87598 227.925L8.94098 227.77C19.986 200.39 28.941 178.22 35.111 162.895L42.241 145.26L44.096 140.68C44.516 139.65 44.736 139.125 44.736 139.125C44.736 139.125 44.531 139.66 44.116 140.7L42.276 145.3L35.211 162.935L9.13598 227.81L9.03098 227.68L76.001 216.65H76.046L125.146 227.65H125.096L175.386 216.65H175.411L208.071 222.88L242.666 229.48L242.521 229.655L206.521 139.155L206.601 139.225L166.431 129.095H166.501L125.866 136.8H125.831L84.331 129.04L55.066 136.5L47.391 138.445L45.426 138.945L44.756 139.095Z" fill="#263238"/>
<path d="M46.8399 141.475L15.2949 223.31L75.7049 213.49L125.85 225.095L175.395 213.195L236.995 225.095L204.56 141.475L167.065 132.25L125.85 139.99L83.7399 132.25L46.8399 141.475Z" fill="white"/>
<path d="M18.7998 214.22L66.8148 203.095L65.0448 192.755L69.0348 190.24L62.8248 166.085L43.6248 149.81L18.7998 214.22Z" fill="#455A64"/>
<path d="M15.2949 223.31L17.6349 217.24L98.1449 198.535L102.515 210.57L101.1 213L85.9799 215.87L75.7049 213.49L15.2949 223.31Z" fill="#EBEBEB"/>
<path d="M102.516 197.37L105.711 209.275L114.986 213.305L128.176 207.445L155.851 199.385L147.216 186.375L102.516 197.37Z" fill="#EBEBEB"/>
<path d="M70.3611 201.78L85.3211 198.535L82.3361 188.815L71.4361 191.445L68.5361 193.495L70.3611 201.78Z" fill="#E0E0E0"/>
<path d="M67.3066 169.565L72.7366 187.39L81.2266 185.52L79.6966 178.675L98.3716 174.49L67.3066 169.565Z" fill="#455A64"/>
<path d="M45.04 146.15L68.535 165.01L99.725 170.925L132.995 162.655L117.81 138.51L83.74 132.25L46.84 141.475L45.04 146.15Z" fill="#EBEBEB"/>
<path d="M122.356 139.345L171.131 214.22L175.396 213.195L128.186 139.55L125.851 139.99L122.356 139.345Z" fill="#EBEBEB"/>
<path d="M82.8359 180.56L89.0159 198.535L143.886 184.515L133.731 167.23L82.8359 180.56Z" fill="#E0E0E0"/>
<path d="M113.361 222.205L113.896 221.41L117.501 216.055L126.146 213.305L132.096 208.825L157.881 201.78L165.891 215.475L125.851 225.095" fill="#E0E0E0"/>
<path d="M159.041 133.755L171.961 148.13L204.561 141.475L167.066 132.25L159.041 133.755Z" fill="#E0E0E0"/>
<path d="M211.421 159.16L187.48 165.815L175.396 149.81L205.376 143.585L211.421 159.16Z" fill="#E0E0E0"/>
<path d="M130.746 139.065L155.851 175.125L184.821 166.81L155.851 134.355L130.746 139.065Z" fill="#EBEBEB"/>
<path d="M200.926 218.125L229.891 206.78L236.996 225.095L200.926 218.125Z" fill="#E0E0E0"/>
<path d="M170.631 172.97L186.371 168.865L202.996 188.815L186.816 194.185L170.631 172.97Z" fill="#455A64"/>
<path d="M189.916 167.23L207.431 187.31L220.621 182.88L211.946 160.52L189.916 167.23Z" fill="#E0E0E0"/>
<path d="M202.996 213.44L189.916 195.295L221.531 185.22L227.951 201.78L223.831 205.925L202.996 213.44Z" fill="#455A64"/>
<path d="M157.385 177.775L181.415 214.22L196.215 217.215L199.005 215.94L168.555 174.41L157.385 177.775Z" fill="#E0E0E0"/>
<path d="M58.9048 204.93L52.9198 176.78L31.8098 180.47L18.7998 214.22L58.9048 204.93Z" fill="#E0E0E0"/>
<path d="M78.315 133.605V146.495L82.835 147.065L95.455 161.765L106.305 160.52L111.47 168.005L99.725 170.925L68.535 165.01L45.04 146.15L46.84 141.475L78.315 133.605Z" fill="#455A64"/>
<path d="M144.295 136.635L162.02 162.5L177.29 158.375L155.85 134.355L144.295 136.635Z" fill="#E0E0E0"/>
<path d="M196.331 163.355L189.916 153.33L207.256 148.43L211.421 159.16L196.331 163.355Z" fill="#EBEBEB"/>
<path d="M170.631 197.865L179.026 194.96L195.306 217.03L181.416 214.22L170.631 197.865Z" fill="#EBEBEB"/>
<path d="M93.2051 217.54L101.01 216.59L103.61 212.785L113.36 215.85L110.81 221.615L93.2051 217.54Z" fill="#455A64"/>
<path d="M46.8404 141.5L49.2704 140.875L56.4104 139.075L83.7254 132.21H83.7504L125.865 139.925H125.83L167.045 132.17H167.09L204.59 141.385H204.645V141.445C214.6 167 225.565 195.28 237.115 225.05L237.2 225.27L236.97 225.225L206.065 219.255L175.37 213.32H175.425L125.88 225.22H125.82L75.6804 213.605H75.7254L15.3104 223.405L15.1504 223.43L15.2054 223.275C24.9704 198 32.8754 177.54 38.3354 163.4C41.0704 156.34 43.1904 150.855 44.6304 147.135L46.2754 142.91C46.6454 141.955 46.8404 141.475 46.8404 141.475C46.8404 141.475 46.6554 141.975 46.2904 142.93L44.6704 147.17L38.4154 163.47L15.3854 223.345L15.2804 223.22L75.6854 213.38H75.7304L125.875 225H125.82L175.365 213.095H175.395L206.115 219L237 224.97L236.855 225.145C225.31 195.37 214.355 167.11 204.43 141.52L204.51 141.59L167.01 132.355H167.055L125.835 140.075H125.8L83.7004 132.315L56.4504 139.105L49.2954 140.88L46.8404 141.5Z" fill="#263238"/>
<g opacity="0.2">
<path d="M125.106 227.775L125.851 136.715L84.336 128.975L76.001 216.765L125.106 227.775Z" fill="black"/>
</g>
<g opacity="0.2">
<path d="M166.471 128.975L175.396 216.765L242.651 229.595L206.646 139.095L166.471 128.975Z" fill="black"/>
</g>
<path d="M126.171 50.545C97.1715 51.22 73.5165 74.86 72.8265 103.86C72.5212 115.764 76.1309 127.44 83.1015 137.095L83.6365 137.82L83.7115 137.925L122.411 190.565C123.201 191.639 124.237 192.507 125.433 193.096C126.628 193.685 127.948 193.978 129.28 193.95C130.613 193.922 131.919 193.574 133.089 192.935C134.259 192.297 135.258 191.386 136.001 190.28L171.001 138.28C177.621 128.18 182.161 117.63 182.161 105.19C182.162 97.8999 180.704 90.6834 177.873 83.9653C175.042 77.2472 170.896 71.1632 165.679 66.0714C160.462 60.9795 154.279 56.9828 147.494 54.3163C140.709 51.6499 133.459 50.3676 126.171 50.545ZM127.471 144.94C119.343 144.941 111.398 142.532 104.639 138.017C97.8803 133.502 92.6122 127.084 89.5011 119.575C86.3899 112.066 85.5754 103.803 87.1605 95.8308C88.7456 87.8588 92.6591 80.5359 98.4062 74.7882C104.153 69.0405 111.476 65.1261 119.447 63.54C127.419 61.9539 135.682 62.7675 143.192 65.8777C150.701 68.9879 157.12 74.2552 161.635 81.0133C166.151 87.7715 168.561 95.717 168.561 103.845C168.561 114.743 164.233 125.195 156.527 132.902C148.821 140.608 138.37 144.939 127.471 144.94Z" fill="white"/>
<g opacity="0.3">
<path d="M126.171 50.545C97.1705 51.22 73.5155 74.86 72.8255 103.86C72.5202 115.764 76.1299 127.44 83.1005 137.095L83.6355 137.82L83.7105 137.925L122.411 190.565C123.2 191.639 124.236 192.507 125.432 193.096C126.627 193.685 127.947 193.978 129.279 193.95C130.612 193.922 131.918 193.574 133.088 192.935C134.258 192.297 135.257 191.386 136.001 190.28L171.001 138.28C177.621 128.18 182.161 117.63 182.161 105.19C182.161 97.8999 180.703 90.6834 177.872 83.9653C175.041 77.2472 170.895 71.1632 165.678 66.0714C160.461 60.9795 154.278 56.9828 147.493 54.3163C140.708 51.6499 133.458 50.3676 126.171 50.545ZM127.471 144.94C119.342 144.941 111.397 142.532 104.638 138.017C97.8793 133.502 92.6113 127.084 89.5001 119.575C86.389 112.066 85.5744 103.803 87.1595 95.8308C88.7446 87.8588 92.6581 80.5359 98.4052 74.7882C104.152 69.0405 111.475 65.1261 119.446 63.54C127.418 61.9539 135.681 62.7675 143.191 65.8777C150.7 68.9879 157.119 74.2552 161.634 81.0133C166.15 87.7715 168.561 95.717 168.561 103.845C168.561 114.743 164.232 125.195 156.526 132.902C148.82 140.608 138.369 144.939 127.471 144.94Z" fill="black"/>
</g>
<path d="M122.93 50.545C93.9303 51.22 70.2753 74.86 69.5853 103.86C69.28 115.764 72.8897 127.44 79.8603 137.095L80.3953 137.82L80.4703 137.925L119.17 190.565C119.96 191.639 120.996 192.507 122.192 193.096C123.387 193.685 124.707 193.978 126.039 193.95C127.372 193.922 128.678 193.574 129.848 192.935C131.017 192.297 132.016 191.386 132.76 190.28L167.76 138.28C174.38 128.18 178.92 117.63 178.92 105.19C178.92 97.8999 177.462 90.6834 174.632 83.9653C171.801 77.2472 167.655 71.1632 162.438 66.0714C157.221 60.9795 151.038 56.9828 144.253 54.3163C137.468 51.6499 130.218 50.3676 122.93 50.545ZM124.23 144.94C116.102 144.941 108.156 142.532 101.398 138.017C94.6391 133.502 89.371 127.084 86.2599 119.575C83.1487 112.066 82.3342 103.803 83.9193 95.8308C85.5044 87.8588 89.4179 80.5359 95.165 74.7882C100.912 69.0405 108.234 65.1261 116.206 63.54C124.178 61.9539 132.441 62.7675 139.951 65.8777C147.46 68.9879 153.878 74.2552 158.394 81.0133C162.91 87.7715 165.32 95.717 165.32 103.845C165.32 114.743 160.991 125.195 153.286 132.902C145.58 140.608 135.128 144.939 124.23 144.94Z" fill="white"/>
<g opacity="0.3">
<path d="M147.87 134.84C147.21 135.585 103.755 147.06 103.1 147.805C111.43 150.345 121.6 152.555 130.31 152.05C135.215 151.77 140.31 150.895 144.21 147.875C148.11 144.855 150.23 139.15 147.87 134.84Z" fill="black"/>
</g>
<path d="M106.37 51.91C105.116 53.2431 104.203 54.8596 103.708 56.6216C103.214 58.3837 103.153 60.2392 103.53 62.03C103.91 63.76 104.67 65.69 103.72 67.185C102.77 68.68 100.56 68.935 99.6749 70.45C98.6249 72.225 100.025 74.45 99.8498 76.52C99.7367 77.4852 99.2836 78.3785 98.5717 79.04C97.8599 79.7015 96.9357 80.0879 95.9648 80.13C98.4704 81.6468 101.346 82.4426 104.275 82.43C104.875 81.39 105.473 80.35 106.07 79.31C105.38 80.415 105.82 81.95 106.765 82.845C107.71 83.74 109.03 84.115 110.315 84.345C113.398 84.8403 116.553 84.6155 119.534 83.6882C122.516 82.761 125.242 81.1564 127.5 79" fill="#263238"/>
<path d="M141.43 62.7601C140.805 61.4801 139.895 60.3401 139.43 59.0001C138.38 56.1251 139.355 52.5801 137.54 50.1151C136.25 48.3551 133.94 47.7301 131.785 47.3851C129.63 47.0401 127.345 46.8101 125.595 45.5151C124.31 44.5601 123.455 43.1201 122.175 42.1651C120.35 40.8001 117.905 40.5951 115.635 40.7701C113.365 40.9451 110.925 41.5001 109 42.8251C107.075 44.1501 105.605 46.2951 105.555 48.6351C105.53 49.7751 105.83 50.925 105.63 52.045C105.41 53.2801 104.63 54.3301 104.195 55.5101C103.786 56.7767 103.809 58.1435 104.262 59.3954C104.714 60.6473 105.57 61.7131 106.695 62.4251L125.445 80.7101C128.945 81.5001 136.825 78.8451 139.055 76.0201C141.285 73.195 143 66.0001 141.43 62.7601Z" fill="#263238"/>
<path d="M106.716 59.76C106.716 55.015 109.491 49.015 114.216 49.22L129.166 52.015C129.861 52.0456 130.519 52.3359 131.011 52.8283C131.502 53.3208 131.791 53.9798 131.821 54.675L132.471 90.255H132.571C132.571 90.255 129.871 100.475 119.951 98.05C117.981 97.55 116.951 95.52 116.451 93.375H116.356C116.331 93.115 116.316 92.875 116.296 92.63C116 91.026 115.874 89.3953 115.921 87.765C115.706 84.9 115.636 83.725 115.636 83.765C115.636 83.805 109.531 83.145 107.786 75.34C106.921 71.5 106.716 65.035 106.716 59.76Z" fill="#FFBE9D"/>
<path d="M120.411 64.6251C120.416 64.7565 120.447 64.8855 120.502 65.0049C120.557 65.1243 120.635 65.2316 120.732 65.3208C120.829 65.4099 120.942 65.4792 121.065 65.5245C121.189 65.5699 121.32 65.5905 121.451 65.5851C121.581 65.5892 121.711 65.5669 121.833 65.5196C121.954 65.4724 122.065 65.4011 122.158 65.3101C122.252 65.2191 122.326 65.1102 122.376 64.9899C122.426 64.8697 122.452 64.7405 122.451 64.6101C122.446 64.4788 122.415 64.3497 122.36 64.2304C122.305 64.111 122.227 64.0037 122.13 63.9145C122.034 63.8253 121.92 63.7561 121.797 63.7107C121.674 63.6654 121.542 63.6448 121.411 63.6501C121.281 63.6461 121.151 63.6684 121.03 63.7156C120.908 63.7629 120.797 63.8341 120.704 63.9251C120.611 64.0161 120.537 64.125 120.486 64.2453C120.436 64.3656 120.41 64.4948 120.411 64.6251Z" fill="#263238"/>
<path d="M110.085 65.415C110.091 65.5464 110.122 65.6754 110.177 65.7948C110.232 65.9142 110.31 66.0215 110.406 66.1107C110.503 66.1998 110.616 66.2691 110.74 66.3144C110.863 66.3598 110.994 66.3804 111.125 66.375C111.258 66.3792 111.39 66.3562 111.513 66.3074C111.636 66.2586 111.748 66.1851 111.842 66.0914C111.936 65.9977 112.009 65.8858 112.058 65.7626C112.107 65.6394 112.13 65.5075 112.125 65.375C112.114 65.1106 111.998 64.8616 111.803 64.6826C111.608 64.5036 111.35 64.4092 111.085 64.42C110.953 64.4152 110.821 64.4375 110.698 64.4857C110.575 64.534 110.463 64.607 110.369 64.7003C110.276 64.7936 110.202 64.9052 110.153 65.0282C110.104 65.1511 110.081 65.2828 110.085 65.415Z" fill="#263238"/>
<path d="M107.915 63.1801C108.05 63.3451 108.915 62.6301 110.09 62.6351C111.265 62.6401 112.135 63.3351 112.27 63.1651C112.335 63.0901 112.2 62.7901 111.825 62.4651C111.335 62.0571 110.718 61.8326 110.08 61.8301C109.442 61.8416 108.829 62.079 108.35 62.5001C108 62.8001 107.85 63.1051 107.915 63.1801Z" fill="#263238"/>
<path d="M118.905 62.91C119.065 63.06 119.905 62.265 121.15 62.145C122.395 62.025 123.395 62.605 123.515 62.43C123.575 62.35 123.405 62.065 122.97 61.79C122.396 61.4427 121.723 61.2935 121.055 61.365C120.391 61.4322 119.768 61.719 119.285 62.18C118.93 62.535 118.825 62.845 118.905 62.91Z" fill="#263238"/>
<path d="M115.585 70.8649C114.999 70.7241 114.398 70.6553 113.795 70.6599C113.52 70.6599 113.25 70.6099 113.195 70.4199C113.151 70.1348 113.197 69.8431 113.325 69.5849C113.545 68.8999 113.775 68.1749 114.015 67.4199C114.97 64.3349 115.64 61.8099 115.515 61.7699C115.39 61.7299 114.515 64.2049 113.565 67.2699C113.335 68.0299 113.12 68.7699 112.91 69.4499C112.756 69.7961 112.729 70.1859 112.835 70.5499C112.884 70.6469 112.954 70.7312 113.041 70.7963C113.128 70.8614 113.229 70.9054 113.335 70.9249C113.5 70.9591 113.668 70.9709 113.835 70.9599C114.42 71.0025 115.008 70.9705 115.585 70.8649Z" fill="#263238"/>
<path d="M115.641 83.7849C119.349 83.6058 122.935 82.403 126.001 80.3099C126.001 80.3099 123.781 85.8849 115.841 85.6399L115.641 83.7849Z" fill="#EB996E"/>
<path d="M116.211 73.4601C116.402 73.1865 116.659 72.9659 116.958 72.819C117.257 72.672 117.588 72.6036 117.921 72.6201C118.163 72.6283 118.4 72.6842 118.62 72.7846C118.84 72.885 119.037 73.0279 119.201 73.2051C119.358 73.3781 119.458 73.595 119.488 73.8266C119.517 74.0582 119.475 74.2933 119.366 74.5001C119.203 74.7059 118.982 74.8586 118.732 74.9387C118.482 75.0188 118.214 75.0228 117.961 74.9501C117.437 74.7994 116.947 74.5462 116.521 74.2051C116.392 74.1282 116.28 74.0262 116.191 73.9051C116.15 73.8456 116.128 73.775 116.128 73.7026C116.128 73.6302 116.15 73.5595 116.191 73.5001" fill="white"/>
<path d="M118.836 71.4201C118.656 71.4201 118.726 72.6001 117.771 73.5001C116.816 74.4001 115.546 74.3501 115.546 74.5001C115.546 74.5751 115.841 74.7101 116.376 74.6901C117.068 74.6551 117.726 74.3791 118.236 73.9101C118.721 73.4564 119.013 72.8333 119.051 72.1701C119.066 71.6901 118.916 71.4051 118.836 71.4201Z" fill="#263238"/>
<path d="M118.5 59.2301C118.63 59.5201 119.705 59.3101 121 59.3851C122.295 59.4601 123.34 59.7401 123.5 59.4651C123.565 59.3351 123.37 59.0651 122.935 58.8051C122.357 58.4907 121.715 58.3112 121.058 58.28C120.401 58.2489 119.745 58.3669 119.14 58.6251C118.66 58.8451 118.44 59.0901 118.5 59.2301Z" fill="#263238"/>
<path d="M108.531 59.8451C108.761 60.0801 109.601 59.7701 110.631 59.6901C111.661 59.6101 112.546 59.7401 112.731 59.4651C112.811 59.3351 112.656 59.0951 112.261 58.8851C111.721 58.6293 111.12 58.5272 110.526 58.5901C109.931 58.6328 109.359 58.8406 108.876 59.1901C108.526 59.4701 108.426 59.7301 108.531 59.8451Z" fill="#263238"/>
<path d="M132.5 52.6951C131.625 51.6951 130.25 51.3001 128.95 50.9951C123.337 49.6881 117.588 49.052 111.825 49.1001C111.285 50.3601 112.155 51.8501 113.325 52.5451C114.495 53.2401 115.92 53.3851 117.255 53.6801C118.59 53.9751 120 54.5251 120.7 55.6801C121.445 56.9351 121.2 58.5751 121.875 59.8651C123.045 62.0851 126.41 62.3651 127.565 64.6051C128.44 66.2901 127.68 68.3151 127.685 70.2151C127.686 71.1791 127.893 72.1318 128.291 73.0097C128.69 73.8875 129.271 74.6703 129.996 75.3058C130.721 75.9413 131.573 76.4148 132.495 76.6949C133.418 76.975 134.389 77.0552 135.345 76.9301C134.788 70.1701 134.235 63.4117 133.685 56.6551C133.575 55.2751 133.42 53.7601 132.5 52.6951Z" fill="#263238"/>
<path d="M148.375 67.7401C147.18 66.9401 145.74 66.3051 145.125 65.0051C144.235 63.1151 145.495 60.5651 144.22 58.9101C143.06 57.4101 140.32 57.8651 139.22 56.3101C138.36 55.0951 138.975 53.8101 138.555 52.7101C138.135 51.6101 136.36 50.8151 135.21 51.1151L127.915 65.6701C127.69 70.2401 127.165 72.7301 128.485 75.2001C129.21 76.5551 130.09 77.8501 130.485 79.3301C130.88 80.8101 130.755 82.5701 129.65 83.6351C135.18 83.2951 139.91 79.7101 144.265 76.2751L148.87 72.6401C149.38 72.302 149.798 71.8413 150.085 71.3001C150.67 70.0001 149.565 68.5401 148.375 67.7401Z" fill="#263238"/>
<path d="M144.23 74.915C144.05 75.001 143.86 75.0664 143.665 75.11C143.102 75.2499 142.518 75.2905 141.94 75.23C141.02 75.1415 140.14 74.814 139.385 74.28C138.383 73.5493 137.674 72.4858 137.385 71.28C137.206 70.5864 137.166 69.8639 137.27 69.155C137.418 68.4078 137.664 67.6833 138 67C138.361 66.2875 138.615 65.5261 138.755 64.74C138.828 64.3378 138.81 63.9243 138.703 63.5299C138.596 63.1354 138.402 62.7699 138.135 62.46C137.545 61.865 136.595 61.83 135.69 61.605C135.2 61.506 134.751 61.2621 134.4 60.905C134.071 60.513 133.871 60.0296 133.825 59.52C133.695 58.52 133.995 57.52 134.045 56.585C134.091 56.1103 134.028 55.6315 133.86 55.185C133.673 54.7504 133.339 54.3961 132.915 54.185C132.045 53.73 131.025 53.78 130.04 53.835C129.041 53.938 128.032 53.7884 127.105 53.4C126.211 53.0061 125.441 52.3749 124.88 51.575C124.39 50.7952 124.025 49.9431 123.8 49.05C123.588 48.2267 123.291 47.4275 122.915 46.665C122.526 45.9742 121.994 45.3742 121.355 44.905C120.294 44.1278 119.013 43.7089 117.698 43.7089C116.382 43.7089 115.101 44.1278 114.04 44.905C113.304 45.4213 112.666 46.0647 112.155 46.805C111.729 47.4451 111.38 48.1332 111.115 48.855C111.119 48.8039 111.129 48.7535 111.145 48.705C111.175 48.61 111.21 48.46 111.28 48.28C111.475 47.7365 111.734 47.218 112.05 46.735C112.552 45.9598 113.191 45.2821 113.935 44.735C114.919 44.0161 116.085 43.5881 117.3 43.5C118.795 43.4114 120.276 43.8327 121.5 44.695C122.176 45.1829 122.739 45.8104 123.15 46.535C123.539 47.3125 123.846 48.1286 124.065 48.97C124.289 49.8306 124.643 50.6518 125.115 51.405C125.648 52.1545 126.373 52.7455 127.215 53.115C128.097 53.4738 129.054 53.6062 130 53.5C131 53.45 132.065 53.38 133.035 53.885C133.527 54.1279 133.916 54.5396 134.13 55.045C134.318 55.5354 134.389 56.0623 134.34 56.585C134.28 57.585 133.99 58.545 134.11 59.47C134.148 59.9152 134.323 60.3377 134.61 60.68C134.921 60.99 135.316 61.2036 135.745 61.295C136.18 61.41 136.635 61.465 137.085 61.585C137.549 61.6868 137.977 61.9113 138.325 62.235C138.621 62.5779 138.837 62.9826 138.956 63.4194C139.075 63.8563 139.096 64.3143 139.015 64.76C138.868 65.5729 138.602 66.3597 138.225 67.095C137.889 67.7607 137.643 68.4687 137.495 69.2C137.391 69.876 137.422 70.5659 137.585 71.23C137.861 72.3859 138.533 73.4085 139.485 74.12C140.211 74.6473 141.06 74.9811 141.95 75.09C142.714 75.1803 143.489 75.1208 144.23 74.915Z" fill="#455A64"/>
<path d="M150.21 64.4599C150.32 64.5813 150.404 64.7244 150.455 64.8799C150.607 65.3337 150.591 65.8269 150.41 66.2699C150.285 66.5933 150.08 66.8803 149.815 67.1049C149.492 67.3678 149.1 67.5326 148.685 67.5799C148.184 67.6409 147.675 67.5626 147.214 67.3536C146.754 67.1446 146.36 66.8129 146.075 66.3949C145.743 65.9131 145.529 65.3598 145.45 64.7799C145.384 64.1568 145.429 63.5268 145.585 62.9199C145.85 61.6749 146.48 60.4199 146.3 59.0199C146.281 58.6764 146.191 58.3404 146.037 58.0327C145.884 57.7249 145.668 57.4517 145.405 57.2299C144.783 56.8503 144.037 56.7266 143.325 56.8849C142.535 57.0564 141.721 57.0869 140.92 56.9749C140.495 56.8651 140.114 56.6257 139.83 56.2899C139.559 55.9507 139.365 55.5566 139.26 55.1349C139.111 54.324 139.064 53.4975 139.12 52.6749C139.132 51.9052 138.98 51.1418 138.675 50.4349C138.095 49.0888 137.022 48.0155 135.675 47.4349C134.39 46.8849 133.005 46.9999 131.76 47.0999C130.583 47.2667 129.387 47.2465 128.215 47.0399C127.253 46.8252 126.345 46.4169 125.545 45.8399C124.943 45.4103 124.409 44.8929 123.96 44.3049C123.568 43.8133 123.265 43.2565 123.065 42.6599C123.353 43.2095 123.687 43.7331 124.065 44.2249C125.129 45.5455 126.613 46.4615 128.27 46.8199C129.42 46.9983 130.591 46.9983 131.74 46.8199C132.985 46.7099 134.42 46.5749 135.795 47.1449C137.22 47.7449 138.361 48.8664 138.985 50.2799C139.309 51.0259 139.471 51.8319 139.46 52.6449C139.404 53.4408 139.45 54.2405 139.595 55.0249C139.662 55.3985 139.83 55.7465 140.081 56.0306C140.333 56.3147 140.658 56.5238 141.02 56.6349C141.783 56.7366 142.558 56.7061 143.31 56.5449C144.101 56.3742 144.927 56.5215 145.61 56.9549C145.904 57.2029 146.144 57.5081 146.316 57.852C146.488 58.1958 146.588 58.5711 146.61 58.9549C146.68 59.6655 146.607 60.3829 146.395 61.0649C146.22 61.7249 146.005 62.3399 145.86 62.9499C145.702 63.5257 145.653 64.126 145.715 64.7199C145.783 65.2573 145.977 65.7712 146.28 66.2199C146.539 66.6102 146.899 66.9225 147.322 67.1234C147.745 67.3242 148.215 67.406 148.68 67.3599C149.063 67.3217 149.427 67.1761 149.73 66.9399C149.984 66.7383 150.183 66.4772 150.31 66.1799C150.494 65.7626 150.529 65.2951 150.41 64.8549C150.351 64.7199 150.284 64.5881 150.21 64.4599Z" fill="#263238"/>
<path d="M93.0008 75.8151C92.9077 76.3024 92.9835 76.8068 93.2158 77.2451C93.3449 77.4977 93.5285 77.7184 93.7533 77.8913C93.9782 78.0643 94.2386 78.1851 94.5158 78.2451C94.8836 78.3004 95.2596 78.252 95.6014 78.1054C95.9432 77.9587 96.2373 77.7197 96.4508 77.4151C96.6894 77.0572 96.7988 76.6286 96.7608 76.2001C96.7103 75.7274 96.573 75.268 96.3558 74.8451C95.9358 73.9601 95.2008 73.0351 95.1208 71.8101C95.0778 71.1902 95.1645 70.568 95.3754 69.9835C95.5863 69.3989 95.9168 68.8648 96.3458 68.4151C96.7954 67.9397 97.3317 67.5544 97.9258 67.2801C98.535 67.0111 99.1773 66.8245 99.8358 66.7251C100.471 66.6281 101.095 66.4724 101.701 66.2601C102.267 66.0568 102.743 65.6602 103.046 65.1401C103.303 64.6145 103.409 64.0275 103.351 63.4451C103.301 62.8737 103.173 62.3118 102.971 61.7751C102.596 60.7151 102.116 59.6951 102.031 58.6401C101.951 57.6691 102.161 56.6961 102.636 55.8451C103.045 55.1657 103.579 54.5702 104.211 54.0901C104.669 53.7251 105.1 53.3274 105.501 52.9001C105.831 52.5283 106.081 52.0926 106.236 51.6201C106.236 51.6201 106.236 51.6551 106.236 51.7201C106.223 51.8174 106.199 51.913 106.166 52.0051C106.044 52.3621 105.855 52.6929 105.611 52.9801C105.221 53.4264 104.796 53.841 104.341 54.2201C103.739 54.6995 103.23 55.286 102.841 55.9501C102.405 56.7651 102.217 57.6898 102.301 58.6101C102.391 59.6101 102.861 60.6101 103.256 61.6701C103.472 62.2316 103.608 62.8207 103.661 63.4201C103.728 64.0609 103.611 64.7076 103.326 65.2851C102.99 65.871 102.459 66.3204 101.826 66.5551C101.201 66.7804 100.556 66.9478 99.9008 67.0551C99.2685 67.1504 98.6515 67.3286 98.0658 67.5851C97.5024 67.8389 96.9932 68.1988 96.5658 68.6451C96.164 69.0627 95.8534 69.5592 95.6537 70.1032C95.454 70.6472 95.3696 71.2268 95.4058 71.8051C95.4658 72.9251 96.1508 73.8051 96.5858 74.7451C96.8126 75.2001 96.9517 75.6937 96.9958 76.2001C97.0367 76.6829 96.9056 77.1646 96.6258 77.5601C96.385 77.8936 96.0552 78.1526 95.6741 78.3073C95.2929 78.4621 94.8759 78.5064 94.4708 78.4351C93.9871 78.3116 93.5627 78.0211 93.2726 77.6148C92.9825 77.2085 92.8455 76.7127 92.8858 76.2151C92.8987 76.0757 92.9377 75.9401 93.0008 75.8151Z" fill="#263238"/>
<path d="M94.8246 106.305C94.8246 106.305 95.6646 99.58 98.9046 96.22C102.145 92.86 115.705 88.65 115.705 88.65C115.705 88.65 116.265 93.445 119.515 94.6C122.96 95.83 126.85 95.37 129.37 92.44C130.894 90.5622 131.965 88.3586 132.5 86C132.5 86 148.695 87.5 151.335 91.93C153.975 96.36 157.39 113.575 157.39 113.575L142.25 116.79L144.31 146.42H104.1L104.885 118.61L93.9346 120.175L94.8246 106.305Z" fill="#455A64"/>
<path d="M139.265 117.74C139.218 117.522 139.199 117.298 139.21 117.075C139.21 116.645 139.21 116.02 139.21 115.255C139.21 113.715 139.235 111.595 139.285 109.255C139.335 106.915 139.395 104.79 139.46 103.255C139.49 102.485 139.52 101.865 139.55 101.435C139.547 101.21 139.575 100.986 139.635 100.77C139.679 100.989 139.696 101.212 139.685 101.435C139.685 101.865 139.685 102.49 139.685 103.255C139.685 104.795 139.66 106.915 139.61 109.255C139.56 111.595 139.5 113.72 139.435 115.255C139.405 116.02 139.37 116.64 139.345 117.07C139.351 117.296 139.324 117.522 139.265 117.74Z" fill="#263238"/>
<path d="M101.155 105.54C101.25 105.515 102.195 108.54 103.265 112.255C104.335 115.97 105.135 119.035 105.04 119.06C104.945 119.085 104.005 116.06 102.93 112.35C101.855 108.64 101.065 105.57 101.155 105.54Z" fill="#263238"/>
<path d="M149.665 90.84C149.665 90.9 148.945 91.0351 147.84 91.4551C144.942 92.5643 142.53 94.6631 141.03 97.38C140.46 98.415 140.225 99.12 140.165 99.1C140.177 98.9284 140.216 98.7597 140.28 98.6C140.42 98.1447 140.598 97.7016 140.81 97.2751C141.514 95.8603 142.49 94.5984 143.683 93.5619C144.875 92.5254 146.261 91.7347 147.76 91.2351C148.211 91.0817 148.675 90.9663 149.145 90.89C149.314 90.8415 149.49 90.8245 149.665 90.84Z" fill="#263238"/>
<path d="M98.6655 97.575C98.7555 97.575 99.0755 98.49 99.3755 99.665C99.6755 100.84 99.8405 101.815 99.7455 101.84C99.6505 101.865 99.3355 100.925 99.0355 99.75C98.7355 98.575 98.5705 97.6 98.6655 97.575Z" fill="#263238"/>
<path d="M154.719 114.12C154.719 114.12 150.184 137.15 149.664 139.12C149.144 141.09 148.309 146.395 142.814 147.495C135.399 148.995 106.284 147.94 106.284 147.94L111.784 140.99L137.259 133.845L140.759 117.09L154.719 114.12Z" fill="#FFBE9D"/>
<path d="M111.301 137.1C111.402 137.263 111.475 137.442 111.516 137.63C111.665 138.132 111.762 138.648 111.806 139.17C111.959 140.903 111.597 142.642 110.766 144.17C110.323 145.021 109.763 145.806 109.101 146.5C108.551 147.064 107.888 147.505 107.156 147.795C106.664 147.98 106.149 148.097 105.626 148.14C105.435 148.171 105.241 148.171 105.051 148.14C105.732 148.014 106.402 147.828 107.051 147.585C107.733 147.279 108.348 146.84 108.861 146.295C109.484 145.614 110.019 144.856 110.451 144.04C111.252 142.561 111.632 140.89 111.551 139.21C111.501 137.89 111.236 137.12 111.301 137.1Z" fill="#EB996E"/>
<path d="M86.9209 109.845C86.9209 109.845 91.0259 123.66 92.7259 129.63C94.5359 135.97 98.4909 150.37 106.921 147.815C113.336 145.865 111.451 137.555 111.451 137.555L104.886 118.585L99.7809 119.44L94.8259 106.645L86.9209 109.845Z" fill="#FFBE9D"/>
<path d="M109.206 138.155C109.435 137.126 109.435 136.059 109.206 135.03C108.934 133.923 108.471 132.872 107.836 131.925C107.035 130.769 106.146 129.678 105.176 128.66C104.201 127.624 103.309 126.514 102.506 125.34C101.864 124.371 101.304 123.351 100.831 122.29C100.511 121.577 100.237 120.843 100.011 120.095C99.9068 119.825 99.8395 119.543 99.8105 119.255C99.9396 119.511 100.048 119.777 100.136 120.05C100.336 120.55 100.636 121.3 101.056 122.185C101.552 123.219 102.127 124.214 102.776 125.16C103.582 126.311 104.471 127.402 105.436 128.425C106.418 129.456 107.311 130.568 108.106 131.75C108.752 132.74 109.208 133.842 109.451 135C109.607 135.779 109.607 136.581 109.451 137.36C109.411 137.57 109.352 137.776 109.276 137.975C109.261 138.038 109.238 138.099 109.206 138.155Z" fill="#EB996E"/>
<path d="M94.8247 106.645C94.8247 106.645 94.8547 101.145 94.3697 99.575L90.4697 90.865C90.4697 90.865 89.4697 90.25 88.9697 91.985C88.4697 93.72 90.0097 95.51 90.0097 95.51L90.1297 97.79L88.5697 96.5L85.5347 90.81C85.5347 90.81 83.4397 86.665 82.8997 87.31C82.3597 87.955 82.5347 89.31 83.4347 91.085L85.4847 95.145C85.4847 95.145 85.7947 95.865 84.7197 94.82C83.6447 93.775 81.3097 88.715 80.8247 88.08C80.3397 87.445 79.6797 85.58 78.6347 86.015C77.5897 86.45 78.9297 88.66 78.9297 88.66L82.2747 96.16C82.2747 96.16 80.3347 93.32 79.9847 92.84C79.6347 92.36 78.8247 90.735 78.1897 89.905C77.5547 89.075 76.8597 88.755 76.3997 88.955C76.1751 89.0358 75.99 89.1994 75.8822 89.4123C75.7743 89.6252 75.752 89.8712 75.8197 90.1L79.3947 96.3C79.3947 96.3 81.1797 99.085 81.1797 99.3C81.1797 99.515 79.6197 98.38 79.6197 98.38L78.1197 96.47C78.1197 96.47 76.4997 93.61 75.6497 93.765C74.7997 93.92 74.9497 94.555 74.9497 94.555L77.9497 99.765L82.3197 105.385L86.9897 110.025L89.6897 109.155L94.8247 106.645Z" fill="#FFBE9D"/>
<path d="M86.2308 105.715C86.3668 105.152 86.4571 104.578 86.5008 104C86.6758 102.97 87.0308 101.425 88.2958 100.43C88.8069 100.003 89.4455 99.7589 90.1108 99.735H90.3358V99.495C90.2658 98.425 90.3058 97.405 90.2658 96.73C90.2981 96.3584 90.2469 95.9842 90.1158 95.635C90.0463 95.9942 90.0112 96.3592 90.0108 96.725C89.9341 97.6679 89.9058 98.6142 89.9258 99.56L90.1308 99.32C89.3647 99.3181 88.6225 99.5873 88.0358 100.08C87.3951 100.597 86.9062 101.278 86.6208 102.05C86.3965 102.665 86.2553 103.308 86.2008 103.96C86.1141 104.543 86.1243 105.136 86.2308 105.715Z" fill="#EB996E"/>
<path d="M157.975 154.815H93.3704C92.0284 154.815 90.9404 155.903 90.9404 157.245V174.86C90.9404 176.202 92.0284 177.29 93.3704 177.29H157.975C159.317 177.29 160.405 176.202 160.405 174.86V157.245C160.405 155.903 159.317 154.815 157.975 154.815Z" fill="white"/>
<path d="M157.999 177.295C157.999 177.295 158.159 177.295 158.459 177.235C158.903 177.144 159.312 176.929 159.639 176.615C159.907 176.36 160.114 176.048 160.244 175.701C160.373 175.355 160.423 174.983 160.389 174.615C160.389 173.735 160.389 172.725 160.389 171.615C160.389 169.34 160.389 166.56 160.389 163.33C160.389 161.713 160.389 159.99 160.389 158.16C160.407 157.701 160.392 157.242 160.344 156.785C160.251 156.332 160.027 155.917 159.699 155.59C159.362 155.253 158.929 155.028 158.459 154.945C157.96 154.902 157.459 154.891 156.959 154.91L93.4292 154.945C92.8749 154.944 92.3391 155.144 91.9202 155.507C91.5013 155.869 91.2275 156.371 91.1492 156.92C91.1042 157.275 91.1491 157.675 91.1241 158.055V173.725C91.1241 174.085 91.1241 174.45 91.1241 174.81C91.1179 175.154 91.1879 175.496 91.3292 175.81C91.4689 176.121 91.676 176.397 91.9354 176.619C92.1947 176.84 92.5 177.001 92.8292 177.09C93.1569 177.165 93.4935 177.193 93.8292 177.175H103.099H131.659L150.914 177.22H156.149L150.914 177.245L131.659 177.285L103.099 177.315H93.7842C93.4182 177.335 93.0512 177.303 92.6941 177.22C92.1481 177.071 91.6671 176.744 91.3269 176.291C90.9866 175.839 90.8062 175.286 90.8142 174.72V171.45C90.8142 168.527 90.8142 165.552 90.8142 162.525V157.965C90.8044 157.575 90.8144 157.184 90.8442 156.795C90.8989 156.391 91.0517 156.007 91.2892 155.675C91.5275 155.343 91.8412 155.072 92.2044 154.884C92.5677 154.696 92.9703 154.597 93.3791 154.595L156.909 154.635C157.41 154.619 157.911 154.634 158.409 154.68C158.905 154.773 159.362 155.013 159.719 155.37C160.076 155.727 160.317 156.184 160.409 156.68C160.461 157.146 160.476 157.616 160.454 158.085C160.454 159.915 160.454 161.638 160.454 163.255C160.454 166.485 160.454 169.255 160.454 171.54C160.454 172.673 160.454 173.673 160.454 174.54C160.475 174.949 160.405 175.357 160.249 175.735C160.11 176.046 159.91 176.325 159.659 176.555C159.323 176.87 158.903 177.08 158.449 177.16C158.335 177.181 158.22 177.192 158.104 177.195L157.999 177.295Z" fill="#263238"/>
<path d="M109.774 162.547C109.744 162.443 109.702 162.352 109.648 162.272C109.594 162.191 109.528 162.123 109.45 162.067C109.373 162.011 109.285 161.967 109.186 161.937C109.088 161.908 108.979 161.893 108.86 161.893C108.637 161.893 108.441 161.948 108.272 162.059C108.104 162.17 107.973 162.331 107.88 162.543C107.786 162.753 107.739 163.01 107.739 163.314C107.739 163.618 107.785 163.876 107.877 164.089C107.97 164.303 108.1 164.465 108.269 164.577C108.438 164.688 108.638 164.744 108.868 164.744C109.077 164.744 109.255 164.707 109.403 164.633C109.552 164.558 109.666 164.452 109.744 164.315C109.823 164.179 109.863 164.018 109.863 163.832L110.051 163.859H108.926V163.165H110.752V163.714C110.752 164.098 110.671 164.428 110.509 164.703C110.347 164.977 110.124 165.189 109.84 165.338C109.556 165.486 109.23 165.56 108.864 165.56C108.455 165.56 108.095 165.469 107.786 165.289C107.476 165.107 107.235 164.849 107.061 164.516C106.889 164.18 106.804 163.783 106.804 163.322C106.804 162.969 106.855 162.653 106.957 162.376C107.061 162.098 107.206 161.862 107.392 161.669C107.578 161.476 107.794 161.329 108.041 161.228C108.289 161.127 108.556 161.077 108.845 161.077C109.092 161.077 109.322 161.113 109.535 161.185C109.748 161.256 109.937 161.357 110.102 161.488C110.268 161.619 110.404 161.774 110.509 161.955C110.614 162.134 110.681 162.331 110.711 162.547H109.774ZM114.14 161.136H115.063V163.97C115.063 164.288 114.987 164.567 114.835 164.805C114.684 165.044 114.473 165.23 114.202 165.364C113.93 165.496 113.614 165.562 113.254 165.562C112.891 165.562 112.575 165.496 112.303 165.364C112.032 165.23 111.821 165.044 111.671 164.805C111.52 164.567 111.445 164.288 111.445 163.97V161.136H112.367V163.891C112.367 164.058 112.403 164.205 112.476 164.335C112.55 164.464 112.653 164.565 112.787 164.639C112.921 164.713 113.076 164.75 113.254 164.75C113.433 164.75 113.588 164.713 113.72 164.639C113.854 164.565 113.957 164.464 114.029 164.335C114.103 164.205 114.14 164.058 114.14 163.891V161.136ZM115.822 165.5V161.136H118.762V161.897H116.744V162.937H118.611V163.697H116.744V164.739H118.771V165.5H115.822ZM121.863 162.391C121.846 162.219 121.772 162.086 121.643 161.991C121.514 161.896 121.339 161.848 121.117 161.848C120.966 161.848 120.839 161.869 120.736 161.912C120.632 161.953 120.552 162.011 120.497 162.085C120.443 162.158 120.416 162.242 120.416 162.336C120.413 162.414 120.429 162.482 120.465 162.54C120.502 162.599 120.552 162.649 120.616 162.692C120.68 162.733 120.754 162.769 120.838 162.8C120.922 162.83 121.011 162.856 121.106 162.877L121.498 162.971C121.689 163.013 121.863 163.07 122.022 163.141C122.182 163.212 122.319 163.3 122.436 163.403C122.552 163.507 122.642 163.629 122.706 163.77C122.772 163.911 122.805 164.072 122.807 164.254C122.805 164.521 122.737 164.752 122.602 164.948C122.468 165.143 122.275 165.294 122.022 165.402C121.771 165.509 121.468 165.562 121.113 165.562C120.76 165.562 120.454 165.508 120.192 165.4C119.932 165.292 119.729 165.132 119.583 164.92C119.438 164.707 119.362 164.444 119.355 164.13H120.248C120.258 164.276 120.299 164.398 120.373 164.496C120.449 164.593 120.549 164.666 120.674 164.716C120.8 164.764 120.943 164.788 121.102 164.788C121.258 164.788 121.394 164.766 121.509 164.72C121.625 164.675 121.716 164.612 121.78 164.531C121.843 164.45 121.875 164.357 121.875 164.251C121.875 164.153 121.846 164.071 121.788 164.004C121.731 163.937 121.647 163.881 121.537 163.834C121.427 163.787 121.293 163.744 121.134 163.706L120.659 163.587C120.291 163.497 120 163.357 119.787 163.167C119.574 162.977 119.468 162.72 119.47 162.398C119.468 162.134 119.539 161.903 119.681 161.705C119.824 161.508 120.021 161.354 120.271 161.243C120.521 161.132 120.805 161.077 121.123 161.077C121.447 161.077 121.73 161.132 121.971 161.243C122.214 161.354 122.403 161.508 122.538 161.705C122.673 161.903 122.743 162.131 122.747 162.391H121.863ZM123.261 161.897V161.136H126.845V161.897H125.509V165.5H124.597V161.897H123.261ZM131.191 162.391C131.174 162.219 131.101 162.086 130.971 161.991C130.842 161.896 130.667 161.848 130.445 161.848C130.294 161.848 130.167 161.869 130.064 161.912C129.96 161.953 129.88 162.011 129.825 162.085C129.771 162.158 129.744 162.242 129.744 162.336C129.741 162.414 129.758 162.482 129.793 162.54C129.83 162.599 129.88 162.649 129.944 162.692C130.008 162.733 130.082 162.769 130.166 162.8C130.25 162.83 130.339 162.856 130.434 162.877L130.826 162.971C131.017 163.013 131.191 163.07 131.351 163.141C131.51 163.212 131.647 163.3 131.764 163.403C131.88 163.507 131.971 163.629 132.035 163.77C132.1 163.911 132.133 164.072 132.135 164.254C132.133 164.521 132.065 164.752 131.93 164.948C131.797 165.143 131.603 165.294 131.351 165.402C131.099 165.509 130.796 165.562 130.441 165.562C130.089 165.562 129.782 165.508 129.52 165.4C129.26 165.292 129.057 165.132 128.911 164.92C128.766 164.707 128.69 164.444 128.683 164.13H129.576C129.586 164.276 129.628 164.398 129.701 164.496C129.777 164.593 129.877 164.666 130.002 164.716C130.128 164.764 130.271 164.788 130.43 164.788C130.586 164.788 130.722 164.766 130.837 164.72C130.954 164.675 131.044 164.612 131.108 164.531C131.172 164.45 131.204 164.357 131.204 164.251C131.204 164.153 131.174 164.071 131.116 164.004C131.059 163.937 130.976 163.881 130.865 163.834C130.755 163.787 130.621 163.744 130.462 163.706L129.987 163.587C129.619 163.497 129.329 163.357 129.116 163.167C128.902 162.977 128.797 162.72 128.798 162.398C128.797 162.134 128.867 161.903 129.009 161.705C129.152 161.508 129.349 161.354 129.599 161.243C129.849 161.132 130.133 161.077 130.451 161.077C130.775 161.077 131.058 161.132 131.299 161.243C131.542 161.354 131.731 161.508 131.866 161.705C132.001 161.903 132.071 162.131 132.075 162.391H131.191ZM132.755 165.5V161.136H134.477C134.808 161.136 135.09 161.2 135.323 161.326C135.556 161.451 135.733 161.625 135.855 161.848C135.979 162.07 136.041 162.325 136.041 162.615C136.041 162.905 135.978 163.161 135.853 163.382C135.728 163.604 135.547 163.776 135.31 163.9C135.074 164.023 134.789 164.085 134.453 164.085H133.356V163.346H134.304C134.482 163.346 134.628 163.315 134.743 163.254C134.86 163.192 134.946 163.106 135.003 162.996C135.061 162.886 135.09 162.759 135.09 162.615C135.09 162.47 135.061 162.344 135.003 162.236C134.946 162.126 134.86 162.042 134.743 161.982C134.627 161.921 134.479 161.891 134.3 161.891H133.678V165.5H132.755ZM140.65 163.318C140.65 163.794 140.56 164.199 140.379 164.533C140.2 164.866 139.956 165.121 139.646 165.298C139.338 165.472 138.992 165.56 138.607 165.56C138.219 165.56 137.871 165.472 137.563 165.295C137.254 165.119 137.011 164.864 136.832 164.531C136.653 164.197 136.563 163.793 136.563 163.318C136.563 162.842 136.653 162.437 136.832 162.104C137.011 161.77 137.254 161.516 137.563 161.341C137.871 161.165 138.219 161.077 138.607 161.077C138.992 161.077 139.338 161.165 139.646 161.341C139.956 161.516 140.2 161.77 140.379 162.104C140.56 162.437 140.65 162.842 140.65 163.318ZM139.715 163.318C139.715 163.01 139.668 162.75 139.576 162.538C139.485 162.327 139.357 162.166 139.19 162.057C139.024 161.947 138.83 161.893 138.607 161.893C138.384 161.893 138.189 161.947 138.023 162.057C137.857 162.166 137.727 162.327 137.635 162.538C137.544 162.75 137.499 163.01 137.499 163.318C137.499 163.626 137.544 163.886 137.635 164.098C137.727 164.31 137.857 164.47 138.023 164.58C138.189 164.689 138.384 164.744 138.607 164.744C138.83 164.744 139.024 164.689 139.19 164.58C139.357 164.47 139.485 164.31 139.576 164.098C139.668 163.886 139.715 163.626 139.715 163.318ZM140.968 161.897V161.136H144.552V161.897H143.216V165.5H142.304V161.897H140.968Z" fill="black"/>
<path d="M105.686 170.235C105.707 169.868 105.836 169.516 106.056 169.222C106.277 168.928 106.579 168.706 106.925 168.582C107.271 168.459 107.646 168.441 108.003 168.529C108.36 168.618 108.682 168.809 108.931 169.08L108.431 169.545C108.326 169.42 108.196 169.318 108.048 169.249C107.9 169.18 107.739 169.145 107.576 169.145C107.286 169.145 107.009 169.26 106.805 169.464C106.6 169.669 106.486 169.946 106.486 170.235C106.486 170.524 106.6 170.802 106.805 171.006C107.009 171.21 107.286 171.325 107.576 171.325C107.739 171.327 107.902 171.291 108.05 171.221C108.198 171.151 108.328 171.048 108.431 170.92L108.931 171.385C108.684 171.658 108.361 171.852 108.004 171.942C107.647 172.032 107.272 172.015 106.925 171.892C106.578 171.769 106.275 171.546 106.054 171.251C105.834 170.956 105.706 170.603 105.686 170.235Z" fill="#E0E0E0"/>
<path d="M109.455 168.535H110.245V171.935H109.455V168.535Z" fill="#E0E0E0"/>
<path d="M111.755 169.175H110.665V168.535H113.63V169.175H112.54V171.935H111.755V169.175Z" fill="#E0E0E0"/>
<path d="M115.62 170.73V171.935H114.835V170.72L113.5 168.535H114.335L115.24 170.035L116.15 168.535H116.925L115.62 170.73Z" fill="#E0E0E0"/>
<path d="M117.795 171.5C117.79 171.675 117.743 171.846 117.66 172L117.385 172.7H116.885L117.095 171.925C117.014 171.893 116.945 171.836 116.899 171.762C116.852 171.688 116.83 171.602 116.835 171.515C116.835 171.39 116.884 171.271 116.972 171.183C117.061 171.094 117.18 171.045 117.305 171.045C117.429 171.045 117.549 171.094 117.637 171.183C117.725 171.271 117.775 171.39 117.775 171.515L117.795 171.5Z" fill="#E0E0E0"/>
<path d="M119.5 170.235C119.523 169.868 119.653 169.516 119.874 169.223C120.095 168.929 120.397 168.707 120.744 168.584C121.09 168.461 121.465 168.442 121.821 168.531C122.178 168.619 122.501 168.81 122.75 169.08L122.25 169.545C122.146 169.419 122.015 169.318 121.868 169.249C121.72 169.179 121.558 169.144 121.395 169.145C121.106 169.145 120.829 169.26 120.624 169.464C120.42 169.669 120.305 169.946 120.305 170.235C120.305 170.524 120.42 170.801 120.624 171.006C120.829 171.21 121.106 171.325 121.395 171.325C121.559 171.327 121.721 171.292 121.87 171.222C122.018 171.152 122.148 171.048 122.25 170.92L122.75 171.385C122.502 171.657 122.18 171.85 121.823 171.94C121.466 172.03 121.09 172.012 120.743 171.889C120.396 171.767 120.093 171.544 119.872 171.25C119.651 170.955 119.521 170.602 119.5 170.235Z" fill="#E0E0E0"/>
<path d="M123 170.235C122.979 169.862 123.07 169.492 123.262 169.171C123.454 168.851 123.738 168.596 124.077 168.439C124.415 168.281 124.794 168.229 125.162 168.289C125.531 168.349 125.873 168.519 126.144 168.775C126.415 169.032 126.603 169.364 126.683 169.729C126.764 170.094 126.733 170.474 126.594 170.821C126.456 171.168 126.217 171.465 125.908 171.674C125.598 171.884 125.233 171.996 124.86 171.995C124.621 172.009 124.381 171.973 124.156 171.891C123.931 171.809 123.725 171.681 123.55 171.516C123.376 171.352 123.238 171.153 123.143 170.933C123.048 170.712 123 170.475 123 170.235ZM125.925 170.235C125.92 170.026 125.853 169.822 125.734 169.65C125.614 169.479 125.446 169.346 125.251 169.269C125.056 169.192 124.842 169.175 124.637 169.219C124.432 169.263 124.245 169.366 124.099 169.516C123.952 169.666 123.853 169.856 123.814 170.061C123.775 170.267 123.797 170.48 123.879 170.673C123.96 170.866 124.096 171.031 124.271 171.147C124.446 171.263 124.65 171.325 124.86 171.325C125.004 171.33 125.147 171.305 125.281 171.252C125.414 171.199 125.536 171.118 125.637 171.016C125.738 170.914 125.816 170.791 125.868 170.657C125.919 170.522 125.942 170.379 125.935 170.235H125.925Z" fill="#E0E0E0"/>
<path d="M127.296 170.44V168.535H128.081V170.41C128.081 171.055 128.361 171.325 128.841 171.325C129.321 171.325 129.596 171.055 129.596 170.41V168.535H130.376V170.44C130.376 170.849 130.214 171.24 129.925 171.529C129.636 171.818 129.244 171.98 128.836 171.98C128.427 171.98 128.036 171.818 127.747 171.529C127.458 171.24 127.296 170.849 127.296 170.44Z" fill="#E0E0E0"/>
<path d="M134.27 168.535V171.935H133.625L131.93 169.87V171.935H131.15V168.535H131.8L133.5 170.6V168.535H134.27Z" fill="#E0E0E0"/>
<path d="M135.78 169.175H134.69V168.535H137.655V169.175H136.565V171.935H135.78V169.175Z" fill="#E0E0E0"/>
<path d="M140.246 171.935L139.591 171H138.866V171.945H138.076V168.545H139.576C140.481 168.545 141.051 169.015 141.051 169.78C141.061 170.01 140.999 170.237 140.873 170.429C140.748 170.622 140.565 170.771 140.351 170.855L141.116 171.945L140.246 171.935ZM139.501 169.175H138.861V170.36H139.501C140.001 170.36 140.226 170.14 140.226 169.77C140.226 169.4 140.001 169.175 139.501 169.175Z" fill="#E0E0E0"/>
<path d="M143.231 170.73V171.935H142.446V170.72L141.126 168.535H141.961L142.871 170.035L143.781 168.535H144.556L143.231 170.73Z" fill="#E0E0E0"/>
</svg>
